<svg xmlns="http://www.w3.org/2000/svg" viewBox="0 0 1024 1024"><path fill="#f4cfa3" stroke="#f4cfa3" d="M90.5 182.195c-2.789 1.581-3.467 2.831-3.485 6.42-.02 4.134 2.565 7.214 12.227 14.57 22.412 17.06 40.357 39.514 51.186 64.046l2.53 5.732-9.629-5.052c-7.33-3.847-10.249-4.898-12.229-4.404-4.427 1.105-6.307 3.527-5.916 7.625l.35 3.673-2.517-1.795c-1.384-.987-3.417-2.797-4.517-4.024C113.967 263.933 97.044 254 92.968 254c-4.907 0-6.267 1.802-5.606 7.427l.614 5.222-3.238-.057c-1.781-.031-4.152.272-5.268.673-1.509.543-3.395-.295-7.351-3.267-8.585-6.452-13.746-5.406-16.9 3.425-2.332 6.528-3.096 6.575-9.709.586-6.334-5.736-8.954-7.009-14.425-7.009-7.543 0-16.519 8.908-20.054 19.905-1.923 5.98-3.09 7.881-6.681 10.882L0 295.424l.013 113.038L.027 521.5l2.807 8c1.544 4.4 3.581 9.476 4.527 11.279 1.885 3.593 1.931 3.453-3.546 10.928L0 556.915v16.042C0 582.136.396 589 .926 589c.51 0 4.892-3.808 9.738-8.462 4.847-4.654 9.083-8.141 9.413-7.75.331.392 3.203 8.362 6.382 17.712s6.557 18.8 7.506 21c.949 2.2 3.015 7.101 4.591 10.892 1.575 3.79 4.532 8.679 6.57 10.865l3.705 3.974 3.238-1.616c4.526-2.257 4.586-2.221 5.979 3.584 1.357 5.657 8.968 26.83 13.947 38.801 11.595 27.876 17.331 34.663 24.847 29.398 1.258-.881 2.399-1.444 2.536-1.25.137.194 1.516 3.277 3.066 6.852 8.253 19.042 24.32 47.481 33.75 59.738 6.66 8.655 12.772 11.296 16.806 7.262 2.677-2.677 2.295-2.985 6.912 5.575C186.601 835.054 281.049 933 302.072 933c3.871 0 8.718-4.364 9.505-8.557l.644-3.436 9.899 9.412c15.555 14.79 43.558 35.165 63.38 46.114 3.85 2.126 7.15 4.226 7.333 4.667.184.44.719.8 1.19.8s5.101 1.997 10.289 4.437c24.874 11.701 35.92 13.184 42.849 5.756 2.715-2.911 3.839-5.009 3.839-7.169v-3.054l10.25 5.291c5.637 2.911 12.05 6.039 14.25 6.951 18.756 7.783 35.452 13.144 55.5 17.821 7.425 1.732 14.175 3.41 15 3.73.825.319 2.4.664 3.5.767 1.1.103 6.05.901 11 1.773 28.346 4.996 52.653 4.498 65.87-1.349 9.432-4.172 12.705-11.859 7.035-16.519l-2.905-2.387 5 1.561c2.75.859 5.675 1.835 6.5 2.169.825.334 1.95.694 2.5.799.55.106 1.225.294 1.5.417.275.124 1.85.385 3.5.581 1.65.195 4.35.583 6 .86 13.86 2.335 59.061 1.202 67.5-1.692.825-.283 3.525-1.066 6-1.74 15.324-4.174 23.61-12.748 18.355-18.992L744.822 979l9.339-.02c5.136-.011 12.264-.49 15.839-1.064 3.575-.574 7.175-1.077 8-1.116.825-.04 2.057-.512 2.737-1.048.681-.537 1.904-.72 2.718-.408.815.313 1.715.189 2.002-.274.286-.464 2.12-1.143 4.074-1.51 4.374-.82 30.787-9.557 38.969-12.889 22.136-9.017 39.72-19.899 44.989-27.843 2.591-3.906 1.912-7.591-1.999-10.836-1.816-1.507-1.027-2.992 1.59-2.992 1.079 0 8.399-3.287 16.267-7.304C923.95 894.026 953 869.468 953 857.885c0-1.269-1.732-3.842-4.106-6.101-2.258-2.148-3.946-4.007-3.75-4.132 23.102-14.675 49.904-42.981 48.12-50.821-.209-.918 1.718-4.518 4.282-8 12.848-17.449 23.592-48.211 25.111-71.894 1.714-26.731-9.693-52.982-27.566-63.437-4.26-2.492-5.005-3.339-4.396-5 2.184-5.955.707-16.841-3.188-23.5-12.037-20.58-33.684-38.556-59.602-49.496-10.571-4.462-24.07-8.504-28.398-8.504-1.196 0-2.511-.337-2.923-.75-2.039-2.04-34.735-2.114-38.084-.086-.55.333-3.025.933-5.5 1.333-2.475.4-6.029 1.356-7.898 2.126-3.119 1.284-3.51 1.239-4.759-.543-2.974-4.247-19.753-7.462-21.785-4.174-.308.498-1.46.671-2.559.383-1.099-.287-1.999-.076-1.999.469 0 .546-1.386 1.269-3.08 1.608-9.707 1.941-28.043 11.953-44.42 24.253-14.763 11.088-39.54 35.638-45.457 45.039-.844 1.342-1.305 1.493-1.697.555-1.222-2.925-5.515-7.039-7.997-7.661-6.118-1.536-12.381 2.94-22.091 15.789-46.52 61.556-109.443 75.717-195.258 43.943-11.296-4.182-10.559-3.648-8.698-6.305 3.104-4.431-.1-7.302-17.802-15.948-22.7-11.087-42.256-23.345-57.746-36.198-2.873-2.383-6.088-5.008-7.145-5.833-15.874-12.386-48.367-43.446-45.837-43.815 2.977-.434 7.228-5.762 7.228-9.059 0-6.806-22.751-33.85-56.89-67.626-10.2-10.092-11.265-11.5-8.699-11.5.776 0 2.576-1.385 4-3.077 6.203-7.371 1.796-16.718-22.377-47.469-14.688-18.684-25.259-30.398-32.034-35.496-8.334-6.271-14.333-13.694-19.71-24.385-1.957-3.89-5.546-9.864-7.978-13.276-4.336-6.085-4.388-6.251-2.738-8.769 4.279-6.531.122-14.774-15.644-31.028-10.558-10.885-26.93-29.19-26.93-30.111 0-.315.9-1.718 2-3.116 3.086-3.923 1.946-22.235-1.916-30.773l-7.015-15.516c-8.919-19.727-13.887-26.444-25.294-34.202-7.38-5.018-14.68-12.126-20.333-19.794-7.377-10.008-25.112-17.666-31.942-13.793M268 464.393c0 .216.698.661 1.552.989.89.341 1.291.173.941-.393-.587-.951-2.493-1.406-2.493-.596m-8 20.985c0 .207.685.946 1.523 1.641 1.273 1.057 1.42.995.893-.378-.538-1.401-2.416-2.384-2.416-1.263M294.5 526c-.34.55-.141 1 .441 1s1.059-.45 1.059-1-.198-1-.441-1-.719.45-1.059 1m3.833 3.544c0 .801.375 1.456.834 1.456.458 0 .833-.423.833-.941s-.375-1.173-.833-1.456c-.459-.283-.834.14-.834.941m1.614 3.555c-1.211 2.264-1.292 2.278-2.034.379-.724-1.854-.777-1.837-.843.272-.046 1.488.523 2.264 1.68 2.292 1.097.026.445.757-1.75 1.958l-3.5 1.916 5 .112c3.739.084 4.495.329 3 .972-1.568.674-1.644.875-.353.93.906.038 4.369 1.42 7.694 3.07 3.326 1.65 6.522 3 7.103 3 .581 0 1.056.378 1.056.839 0 .462 1.125 1.353 2.5 1.979 3.485 1.588 3.656 1.799-7.896-9.714-10.233-10.199-10.416-10.324-11.657-8.005m1.053 1.37c0 .892.587 1.243 1.494.895.822-.316 1.246-.976.941-1.469-.872-1.412-2.435-1.044-2.435.574m59 84.898c0 1.128 3.921 5.045 4.485 4.481.279-.279-.616-1.562-1.989-2.852-1.373-1.289-2.496-2.022-2.496-1.629m11.087 10.383c.608.962 2.299 2.608 3.759 3.658 2.104 1.512 1.94 1.149-.792-1.75-3.79-4.023-4.65-4.576-2.967-1.908m114.726 82.933c.721.289 1.584.253 1.916-.079.332-.332-.258-.568-1.312-.525-1.165.048-1.402.285-.604.604m204.456.01c.973.254 2.323.237 3-.037.677-.274-.119-.481-1.769-.461-1.65.02-2.204.244-1.231.498m-194.456 3.99c.721.289 1.584.253 1.916-.079.332-.332-.258-.568-1.312-.525-1.165.048-1.402.285-.604.604M625.5 724c-1.319.567-1.489.878-.5.914.825.031 2.175-.381 3-.914 1.828-1.181.249-1.181-2.5 0m-99.687 1.683c.721.289 1.584.253 1.916-.079.332-.332-.258-.568-1.312-.525-1.165.048-1.402.285-.604.604m91.937.979c2.061.832 1.409 2.613-.749 2.049-1.099-.288-2.251-.115-2.559.383-.308.498-1.096.87-1.751.827-.852-.056-.834-.223.065-.585.691-.279 1.001-.92.69-1.424-.338-.547-1.332-.508-2.461.096-1.041.557-4.726 1.331-8.189 1.719-5.855.657-6.051.757-2.796 1.421 1.994.407-.264.544-5.25.318-5.463-.248-8.75-.019-8.75.609 0 .553 1.709.905 3.798.782 4.107-.242 6.579.724 5.659 2.212-.316.512.1.931.925.931 2.244 0 2.608 1.315.823 2.967-1.406 1.301-1.511 1.273-.927-.25.446-1.161.165-1.717-.868-1.717-.841 0-1.232.478-.871 1.063s-.132 1.935-1.096 3c-1.676 1.852-1.669 1.938.152 1.952 1.596.013 1.662.173.405.985-.825.533-1.013.976-.417.985 1.909.027 2.436-1.256 1.158-2.82-1.068-1.307-.971-1.37.694-.449 1.528.845 2.54.623 4.812-1.056 4.483-3.315 16.867-3.691 20.995-.639 1.674 1.238 2.732 1.746 2.351 1.13-.719-1.163 2.3-.866 9.351.922 1.894.48 3.625.692 3.846.47.637-.637-12.895-4.596-13.799-4.038-1.076.666-3.991-.489-3.991-1.581 0-.473.749-.574 1.664-.223 1.119.43 1.427.256.941-.531-.398-.644-1.371-1.17-2.164-1.17-1.77 0-1.904-1.645-.191-2.341.946-.383.892-.756-.222-1.529-1.266-.879-1.228-1.116.276-1.693 1.913-.734.527-3.512-1.676-3.358-.709.05-.663.266.122.583m-80 2c.688.278 1.813.278 2.5 0 .688-.277.125-.504-1.25-.504s-1.937.227-1.25.504m6.519 1.031c.973.254 2.323.237 3-.037.677-.274-.119-.481-1.769-.461-1.65.02-2.204.244-1.231.498m8.481.969c.688.278 1.813.278 2.5 0 .688-.277.125-.504-1.25-.504s-1.937.227-1.25.504m53 0c.688.278 1.813.278 2.5 0 .688-.277.125-.504-1.25-.504s-1.937.227-1.25.504M586.5 746c-1.786.767-1.712.867.691.93 1.48.038 2.969-.38 3.309-.93.738-1.194-1.222-1.194-4 0m-17.22 1.736c2.629.207 6.679.204 9-.005 2.321-.21.17-.379-4.78-.376-4.95.003-6.849.175-4.22.381" fill-rule="evenodd"/><path fill="#fbfbfb" stroke="#fbfbfb" d="M91.315 182.007c-1.201.484-2.664 1.776-3.25 2.871-2.879 5.38-.263 9.215 13.385 19.622 20.881 15.922 41.179 41.851 49.999 63.872 2.219 5.54 1.96 6.097-1.699 3.659-5.283-3.519-15.08-8.029-17.444-8.03-1.207-.001-3.437 1.068-4.956 2.375-2.608 2.243-2.697 2.588-1.588 6.199 1.658 5.403 1.277 5.301-6.569-1.762-20.391-18.354-36.031-20.681-29.61-4.405.681 1.727.398 1.851-2.982 1.302-2.054-.333-4.837-.104-6.183.51-2.125.968-3.008.692-6.683-2.083-10.197-7.7-14.389-7.387-17.398 1.302-2.707 7.819-3.809 8.058-10.13 2.193-5.809-5.391-10.453-7.832-14.9-7.832-7.031 0-17.209 9.83-19.375 18.712-1.647 6.759-3.689 10.048-8.161 13.147L0 296.272v113.164c0 63.481.385 113.581.877 114.114.482.522 1.648 3.425 2.589 6.45.942 3.025 2.572 7.408 3.623 9.739 2.433 5.397 2.639 4.491-2.589 11.366L0 557.022v32.102l4.631-3.312c2.547-1.822 7.036-5.964 9.976-9.206 3.578-3.945 5.51-5.433 5.843-4.5.274.767 3.005 8.679 6.07 17.583 13.907 40.4 19.165 49.324 26.562 45.079 3.281-1.883 3.924-1.315 5.348 4.732 2.518 10.692 16.106 44.945 23.323 58.792 5.383 10.33 10.725 13.332 15.193 8.536l2.023-2.172 3.09 6.922c11.958 26.787 28.725 55.273 38.066 64.672 6.324 6.362 8.85 7.062 12.641 3.5 2.81-2.64 3.39-2.156 7.869 6.577 23.525 45.86 121.17 146.575 142.192 146.663 3.783.016 8.173-5.159 8.173-9.634v-3.798l6.25 6.088c26.812 26.118 76.879 58.923 102.055 66.87 2.857.901 5.87 1.91 6.695 2.241 11.417 4.579 26.222-1.725 24.674-10.507-.539-3.059-.438-3.03 12.462 3.52 45.244 22.971 121.059 39.033 152.362 32.279 17.316-3.736 24.754-11.864 17.752-19.399-1.688-1.816-2.12-2.735-1.117-2.381 29.644 10.492 82.344 10.045 105.528-.895 9.998-4.718 13.763-11.165 9.295-15.92l-2.043-2.176 11.793-.519c40.101-1.765 112.342-31.582 117.743-48.598.734-2.313-1.622-7.599-3.974-8.915-1.125-.629.316-1.572 5.49-3.593 24.781-9.679 62.438-35.532 72.285-49.626 6.111-8.748 5.348-13.723-2.853-18.611-1.607-.958-1.125-1.527 4.142-4.886 18.608-11.868 44.563-39.983 43.251-46.849-.327-1.711.839-4.098 4.155-8.507 11.762-15.636 22.556-44.668 25.088-67.477 3.245-29.227-9.832-60.539-28.867-69.122l-4.082-1.841 1.458-3.489c7.432-17.787-18.568-49.775-55.042-67.718-31.413-15.454-62.874-19.001-88.922-10.027-4.761 1.641-4.973 1.632-6.5-.264-3.454-4.29-17.128-7.1-20.585-4.23-.74.614-1.941 1.017-2.669.897-.728-.12-1.999.061-2.824.402-.825.341-4.431 1.702-8.013 3.024-25.196 9.297-55.052 31.999-77.687 59.069-8.739 10.453-8.965 10.614-10.231 7.284-1.998-5.255-9.074-7.282-14.9-4.269-3.368 1.741-9.633 8.514-18.158 19.627-14.532 18.945-29.702 31.466-50.011 41.277-10.493 5.068-15.839 6.97-32 11.381-11.608 3.169-55.535 2.067-64.972-1.63-1.39-.544-5.453-1.484-9.028-2.088-7.196-1.215-32.806-9.032-40.28-12.295-3.543-1.546-4.613-2.487-4.137-3.636 1.607-3.869 1.428-4.997-1.246-7.86-1.579-1.691-6.606-4.655-11.337-6.686-31.522-13.53-58.504-32.841-100.48-71.915C354.288 581.547 353.804 581 356.844 581c2.747 0 6.156-4.607 6.156-8.319 0-8.141-13.817-25.245-50.927-63.042-8.566-8.725-15.033-16.067-14.373-16.317 6.284-2.384 8.562-8.729 5.765-16.054-5.151-13.486-40.668-57.982-52.071-65.234-12.301-7.823-20.036-17.243-26.595-32.389-2.178-5.03-5.1-10.645-6.494-12.478-2.515-3.309-2.521-3.362-.786-7.209 3.496-7.754.025-13.741-20.538-35.422-7.805-8.23-16.216-17.334-18.691-20.23l-4.5-5.268 2.605-3.096c4.61-5.478 2.608-20.241-5.204-38.365-10.049-23.314-16.431-33.143-24.018-36.993-11.405-5.786-21.274-14.949-27.673-25.693-3.063-5.142-5.247-6.724-15.686-11.364-5.942-2.641-8.841-2.994-12.499-1.52M189.542 369c1.359 2.497 7.916 11.203 10.032 13.32.59.591.878 2.098.639 3.348-.463 2.422 5.902 15.944 12.269 26.066 7.949 12.637 18.68 31.919 19.208 34.516.645 3.17-.044 3.336-5.09 1.227-5.176-2.162-5.719.069-1.517 6.232a1180.53 1180.53 0 0 1 4.936 7.291c3.349 5.015 18.981 33.684 18.981 34.811 0 1.649-9.086-2.062-16.75-6.841l-6.25-3.898-.032 4.714c-.055 8.165-3.102 10.068-9.024 5.636-10.532-7.881-13.487-8.014-14.942-.672-.627 3.163-1.364 6.538-1.638 7.5-.792 2.778-5.719 2.136-13.936-1.817-10.335-4.971-12.526-4.568-13.969 2.567-2.641 13.068-6.92 16.168-14.786 10.714-3.377-2.341-3.778-1.961-6.094 5.786-3.562 11.911-10.469 14.795-14.177 5.92-2.05-4.906-2.745-4.396-6.765 4.96-14.935 34.765-22.732 45.925-27.754 39.723-1.036-1.278-1.883-3.373-1.883-4.655 0-4.247-1.702-3.477-5.13 2.322-3.018 5.105-3.741 5.729-6.629 5.72-1.782-.005-3.238.445-3.235 1 .009 1.378 5.527 20.289 7.006 24.01.656 1.65 4.031 11.1 7.499 21 3.469 9.9 7.432 20.699 8.806 23.998 1.374 3.299 2.157 6.224 1.74 6.5-.417.276-1.33 1.627-2.031 3.002l-1.273 2.5 2.183-2.272c1.201-1.25 2.633-1.994 3.183-1.654.585.361.249 1.193-.809 2.003-1.577 1.207-1.617 1.514-.31 2.389 1.153.771.726 1.007-1.844 1.019-2.51.011-3.474-.484-3.866-1.985-.288-1.1-.882-2-1.32-2-.438 0-.297 1.322.313 2.938s1.429 2.74 1.82 2.499c.391-.242.482.435.202 1.505-.28 1.069.184 3.332 1.03 5.028.847 1.697 2.285 5.66 3.197 8.807.911 3.148 1.999 6.173 2.417 6.723.419.55 1.287 2.561 1.93 4.47 2.277 6.753 17.356 38.181 15.618 32.55-1.624-5.261-2.422-18.94-2.22-38.02l.223-21 2.805-4.772c5.178-8.81 12.022-11.514 16.627-6.57 1.845 1.979 1.872 1.954 2.522-2.328 1.72-11.35 7.043-20.258 12.546-20.995 1.804-.242 2.585-1.031 2.805-2.835 1.28-10.506 6.245-18.248 13.864-21.617 7.042-3.115 9.562-3.008 16.101.683 2.988 1.686 5.564 2.923 5.726 2.75.162-.174 1.283-3.691 2.492-7.816 3.673-12.529 9.246-15.894 16.662-10.06 3.544 2.787 4.02 2.634 4.803-1.541 2.24-11.939 10.733-15.207 22.099-8.501l3.212 1.896.549-4.091c1.023-7.629 7.74-9.734 17.156-5.379l4.969 2.299 1.531-3.062c2.133-4.265 9.113-4.31 17.062-.11 3.008 1.589 6.749 2.802 8.314 2.696 3.977-.27 7.898 2.464 17.28 12.051 20.899 21.354 40.668 48.692 40.878 56.528.142 5.337 11.482 16.663 32.497 32.458 7.425 5.581 15.75 12.036 18.5 14.345 5.973 5.015 20.916 12.607 17.357 8.818-1.78-1.894-1.932-2.552-.881-3.818 2.856-3.441 9.795-1.15 23.899 7.891 7.465 4.785 23.92 14.714 31.625 19.082 2.75 1.559 8.15 5.821 12 9.472 7.379 6.996 15.271 11.122 31.5 16.465 16.983 5.592 23.718 6.426 45 5.571 20.946-.841 22.956-1.273 29.155-6.255 4.926-3.959 16.882-4.834 20.566-1.505 1.278 1.155 3.57 1.75 6.742 1.75 2.643 0 6.489.505 8.548 1.121 6.535 1.958 25.461-5.915 43.296-18.011 5.606-3.802 12.893-8.298 16.193-9.99l6-3.078-6.5-.036c-10.239-.058-10.607-1.051-4.998-13.506 1.486-3.3 3.871-8.945 5.299-12.543 1.429-3.599 3.977-9.619 5.663-13.377l3.066-6.834-14.265 14.485c-18.286 18.566-30.698 27.675-51.765 37.987-29.847 14.609-77.382 16.775-116 5.285-17.849-5.31-23.965-7.352-35-11.684-6.875-2.699-16.92-7.131-22.322-9.848-22.429-11.281-43.813-28.992-31.867-26.393 1.479.321.357-.542-2.493-1.919-22.809-11.02-82.805-63.8-116.126-102.159-4.777-5.5-8.916-10.225-9.195-10.5-1.452-1.426-10.762-12.684-11.424-13.813-1.051-1.795 2.188-5.187 4.955-5.187 2.684 0 8.489 2.51 18.36 7.937 4.064 2.235 7.599 4.063 7.856 4.063.258 0-8.424-9.112-19.292-20.25-32.53-33.337-64.94-73.662-61.759-76.843.988-.988 6.527.604 12.072 3.471 5.6 2.896 16.325 6.577 15.565 5.343-.703-1.142-4.761-6.005-31.388-37.618A3468.254 3468.254 0 0 1 221.5 406.01c-22.986-27.861-33.787-40.369-31.958-37.01M10.079 445.583c.048 1.165.285 1.402.604.605.289-.722.253-1.585-.079-1.917-.332-.332-.568.258-.525 1.312m856.689 146.142c1.797.222 4.497.218 6-.01 1.503-.229.032-.411-3.268-.405-3.3.005-4.529.192-2.732.415m15.501-.032c.973.254 2.323.237 3-.037.677-.274-.119-.481-1.769-.461-1.65.02-2.204.244-1.231.498m-26.507 1.014c1.244.239 3.044.23 4-.02s-.062-.446-2.262-.435c-2.2.011-2.982.216-1.738.455m34.507-.014c.973.254 2.323.237 3-.037.677-.274-.119-.481-1.769-.461-1.65.02-2.204.244-1.231.498m-41 1c.973.254 2.323.237 3-.037.677-.274-.119-.481-1.769-.461-1.65.02-2.204.244-1.231.498m46.481-.031c.688.278 1.813.278 2.5 0 .688-.277.125-.504-1.25-.504s-1.937.227-1.25.504M844 594.969c0 .532.675.709 1.5.393.825-.317 1.5-.753 1.5-.969 0-.216-.675-.393-1.5-.393s-1.5.436-1.5.969m-5.25 1.693c.688.278 1.813.278 2.5 0 .688-.277.125-.504-1.25-.504s-1.937.227-1.25.504m71.063 1.021c.721.289 1.584.253 1.916-.079.332-.332-.258-.568-1.312-.525-1.165.048-1.402.285-.604.604m20.751 9.61c.376.986.935 1.541 1.243 1.233.308-.307.001-1.114-.683-1.793-.988-.98-1.102-.865-.56.56m-89.295 3.4c.973.254 2.323.237 3-.037.677-.274-.119-.481-1.769-.461-1.65.02-2.204.244-1.231.498m26.981 2.996c.962.252 2.538.252 3.5 0 .962-.251.175-.457-1.75-.457s-2.712.206-1.75.457m-6.5.973c.688.278 1.813.278 2.5 0 .688-.277.125-.504-1.25-.504s-1.937.227-1.25.504m87.809 5.806c1.067.808 2.365 1.483 2.882 1.5.518.018.068-.629-1-1.436-1.067-.808-2.365-1.483-2.882-1.5-.518-.018-.068.629 1 1.436M958 628.35c0 .231 1.18 1.193 2.623 2.139 1.443.945 2.318 1.224 1.944.62-.713-1.154-4.567-3.483-4.567-2.759m11.411 14.273c.83 1.718 1.227 3.405.882 3.75-.344.345-.101.627.54.627 1.813 0 1.378-2.535-.882-5.139l-2.05-2.361 1.51 3.123M84.031 641.5c0 .55.436 1.675.969 2.5.533.825.969 1.05.969.5s-.436-1.675-.969-2.5c-.533-.825-.969-1.05-.969-.5m659.636 6.167c-.853.853-.685 16.054.213 19.27l.68 2.437 2.22-2.822c1.221-1.552 2.184-3.324 2.141-3.937-.048-.673-.28-.617-.585.141-.279.691-.913 1.005-1.41.698-.497-.307-.612.202-.255 1.131.452 1.177.221 1.545-.762 1.215-1.075-.361-1.409-2.643-1.409-9.638 0-5.041-.038-9.164-.083-9.163-.046 0-.384.301-.75.668M761.5 648c-.34.55-.141 1 .441 1s1.059-.45 1.059-1-.198-1-.441-1-.719.45-1.059 1m-659.485.679c.029 1.532 1.873 3.767 2.55 3.09.37-.371-.055-1.402-.946-2.293-.89-.89-1.612-1.249-1.604-.797m-12.936 5.38c-.043.857.582 2.432 1.389 3.5 1.404 1.856 1.47 1.818 1.5-.868.018-1.545-.38-2.555-.883-2.244-.503.311-1.142 0-1.421-.691-.338-.838-.532-.737-.585.303M751 660c-.589 1.1-.845 2-.57 2s.981-.9 1.57-2c.589-1.1.845-2 .57-2s-.981.9-1.57 2m-643 2c0 .55.45 1 1 1s1-.45 1-1-.45-1-1-1-1 .45-1 1m634.03 7.45c-.022 2.151.269 2.651 1.074 1.846.791-.791.799-1.626.03-2.95-.941-1.618-1.077-1.482-1.104 1.104m-305.217 7.233c.721.289 1.584.253 1.916-.079.332-.332-.258-.568-1.312-.525-1.165.048-1.402.285-.604.604m-38.563 13.006c.962.252 2.538.252 3.5 0 .962-.251.175-.457-1.75-.457s-2.712.206-1.75.457M406 691c0 .55.702 1 1.559 1s1.281-.45.941-1c-.34-.55-1.041-1-1.559-1s-.941.45-.941 1m-15.493.989c-.35.566.051.734.941.393 1.732-.665 2.049-1.382.611-1.382-.518 0-1.216.445-1.552.989m-22.694 14.694c.721.289 1.584.253 1.916-.079.332-.332-.258-.568-1.312-.525-1.165.048-1.402.285-.604.604m347.266 14.9c.048 1.165.285 1.402.604.605.289-.722.253-1.585-.079-1.917-.332-.332-.568.258-.525 1.312m-.266 37.1c.721.289 1.584.253 1.916-.079.332-.332-.258-.568-1.312-.525-1.165.048-1.402.285-.604.604m29.694 56.306c-.35.566.051.734.941.393 1.732-.665 2.049-1.382.611-1.382-.518 0-1.216.445-1.552.989m-8.238 1.704c.973.254 2.323.237 3-.037.677-.274-.119-.481-1.769-.461-1.65.02-2.204.244-1.231.498M643.158 824c0 1.375.227 1.938.504 1.25.278-.687.278-1.812 0-2.5-.277-.687-.504-.125-.504 1.25M487.25 888.689c.962.252 2.538.252 3.5 0 .962-.251.175-.457-1.75-.457s-2.712.206-1.75.457" fill-rule="evenodd"/><path fill="#553527" stroke="#553527" d="M90.106 183.638c-1.471 1.031-2.106 2.549-2.106 5.036 0 4.099 2.864 7.24 14.883 16.326 18.982 14.35 39.243 40.296 49.069 62.841 3.812 8.745 3.734 8.942-1.996 5.066-11.486-7.77-18.933-9.799-22.301-6.078-3.615 3.994-1.586 8.422 11.391 24.861 21.148 26.79 32.127 40.299 38.089 46.867l6.302 6.943-3.276.318c-1.802.174-3.507.921-3.79 1.658-.525 1.368 10.49 15.905 27.676 36.524 5.271 6.325 16.13 19.375 24.13 29s21.338 25.6 29.639 35.5c9.345 11.145 14.56 18.119 13.695 18.312-1.323.296-3.591-.546-19.753-7.33-8.081-3.392-8.825-2.978-5.336 2.975 9.078 15.491 32.705 43.503 60.962 72.277C318.871 546.43 328.035 556 327.749 556c-.286 0-5.634-2.738-11.885-6.084-11.888-6.365-17.763-8.075-20.354-5.924-2.352 1.951-2.368 1.926 13.374 20.216C349.992 611.966 411.139 665.748 434 674.251l7.5 2.789-5.778-.354c-6.805-.418-6.805-.41.248 5.817 29.31 25.875 94.702 48.009 141.53 47.905 45.026-.1 77.959-15.51 114.739-53.686 13.888-14.416 14.009-14.395 7.267 1.278-2.011 4.675-4.257 10.128-4.99 12.118-.734 1.99-1.805 4.465-2.379 5.5-1.84 3.312-5.137 11.593-5.137 12.902 0 3.457 11.064 3.361 21.08-.183 4.169-1.475 8.331-2.393 9.25-2.041 4.018 1.542.534 15.954-7.962 32.934-5.156 10.305-5.493 13.74-1.645 16.767 3.322 2.613 6.745 2.171 16.123-2.081 13.368-6.062 15.341-2.402 7.996 14.83-6.55 15.368-5.108 21.022 5.408 21.206 3.838.067 3.511 1.048-2.733 8.208-6.645 7.619-8.737 11.56-7.431 14 1.988 3.715 11.611 3.55 24.141-.412 3.7-1.17 7.009-1.846 7.353-1.502.343.344-2.773 4.766-6.926 9.828C743.175 830.406 737 841.267 737 845.845c0 4.106 3.872 6.947 16.495 12.103 16.726 6.832 17.081 10.345 1.548 15.355-10.032 3.236-10.803 4.725-5.094 9.838 7.717 6.91 21.933 13.955 39.328 19.489 4.277 1.361 7.534 2.866 7.238 3.346-.663 1.072-8.07 3.475-15.777 5.119-7.383 1.574-8.807 3.138-5.786 6.353 7.182 7.645 42.639 13.051 63.298 9.651 6.995-1.151 5.853.097-4.5 4.919-33.375 15.543-61.083 21.718-102.588 22.865l-22.338.617-2.412 2.806c-3.347 3.893-3.057 5.418 1.934 10.201 3.161 3.029 6.592 4.959 12.581 7.079l8.235 2.914-10.331.627c-28.324 1.721-50.519.66-75.24-3.595-17.908-3.082-20.793-4.061-14.905-5.058 12.274-2.079 10.211-13.351-4.567-24.962-6.836-5.37-6.914-5.969-.902-6.931 12.709-2.032 11.48-13.781-2.724-26.042l-5.518-4.765 4.512-3.972c5.95-5.237 5.769-5.981-2.655-10.9l-7.168-4.187 7.918-3.812c12.295-5.919 15.275-11.638 9.88-18.959-2.615-3.547-10.078-9.944-11.603-9.944-2.253 0-.455-2.268 2.891-3.647 6.577-2.709 10.4-7.906 7.25-9.853-1.918-1.186-.97-2.192 3.25-3.452 8.75-2.611 14.304-11.809 11.769-19.49-1.217-3.688-2.723-4.908-9.447-7.656l-3.928-1.605 6.675-3.733c16.7-9.339 18.205-24.545 2.431-24.56-4.783-.005-4.826-1.578-.162-6.058 14.232-13.671 7.552-35.687-10.22-33.684-3.025.341-4.658.02-5.824-1.144-2.354-2.35-15.224-2.263-18.588.125a848.803 848.803 0 0 0-4.728 3.386c-3.881 2.808-13.161 4.339-26.4 4.355l-12.672.016-3.564 4.163c-3.117 3.642-3.489 4.631-2.966 7.898.509 3.183.291 3.831-1.478 4.392-1.655.525-2.032 1.389-1.862 4.259.213 3.582.175 3.617-7.069 6.575-14.454 5.9-16.707 11.072-7.717 17.713 6.089 4.498 5.948 4.262 4.375 7.316-2.052 3.984-5.313 6.827-10.833 9.441-6.979 3.305-14.042 9.741-14.042 12.794 0 1.879 3.48 7.297 6.069 9.449 3.484 2.896 2.68 4.421-3.46 6.569-16.231 5.675-22.534 12.668-23.376 25.931-.487 7.681 2.63 15.489 9.796 24.537l3.139 3.963h-3.124c-1.718 0-4.888-.9-7.044-2-8.904-4.542-14.449-.958-12.145 7.85 2.585 9.875 10.264 21.877 19.145 29.921 4.23 3.832 2.461 4.268-7 1.729-6.792-1.823-13.672-1.943-14.287-.25-2.712 7.476 19.61 31.002 45.287 47.732 10.267 6.688 9.889 6.868-5 2.388-28.213-8.491-62.46-22.751-74.569-31.051-26.211-17.967-28.023-18.817-31.881-14.96-4.918 4.918-1.687 16.661 7.401 26.891 5.24 5.899 5.295 5.903-7.821-.641-22.425-11.19-56.233-34.541-46.216-31.921 2.609.682 4.402-2.728 3.156-6.003-.511-1.346-2.588-5.941-4.615-10.211-3.373-7.109-5.594-15.474-4.107-15.474.336 0 2.477 2.025 4.759 4.5 6.788 7.364 10.893 5.078 10.893-6.068 0-4.852.415-6.497 2-7.932 2.276-2.06 2.952-16.852.942-20.608-1.567-2.929-1.508-11.505.092-13.433.987-1.189 2.327-1.5 4.763-1.105 6.709 1.089 8.237-2.077 7.99-16.557-.207-12.082-.153-12.413 3.079-18.946 5.509-11.133 6.426-11.607 17.94-9.277 5.635 1.141 9.456-3.615 12.69-15.795 1.95-7.343 2.607-7.84 14.257-10.783 4.895-1.237 6.856-3.679 7.824-9.746.62-3.882.933-4.25 3.617-4.25 5.038 0 6.549-1.491 7.331-7.234.81-5.948 1.553-6.729 6.427-6.751 2.452-.011 4.336-.869 6.5-2.96 2.566-2.48 4.279-3.098 10.832-3.908 10.52-1.3 15.716-5.574 15.716-12.927 0-2.288-12.292-14.292-17.231-16.827-4.865-2.497-33.035-19.452-34.769-20.927-9.055-7.7-25.73-10.012-18.609-2.58 3.936 4.108 3.289 4.1-4.996-.064C415.746 689.475 412 688.925 412 692c0 2.372-.304 2.401-5.5.529-10.45-3.765-17.456-.099-18.257 9.553l-.449 5.418-9.647.024c-18.054.044-26.52 8.28-20.581 20.02 3.795 7.5 2.244 9.456-7.498 9.456-6.882 0-8.85.803-14.318 5.84-3.746 3.451-3.775 8.789-.072 13.189 4.123 4.901 2.523 6.345-7.781 7.024-9.908.652-10.986 1.064-14.36 5.488-5.237 6.866-6.818 12.158-6.932 23.205-.058 5.636-.163 10.248-.233 10.25-.07.002-1.648-.631-3.507-1.408-9.191-3.84-14.009 4.38-11.954 20.393 1.112 8.667 1.18 8.473-2.391 6.846-5.495-2.503-7.686 6.81-5.495 23.358.715 5.403 1.063 10.06.774 10.349-.289.289-2.499-2.505-4.912-6.208-2.413-3.704-5.892-8.536-7.732-10.739-1.84-2.202-6.882-9.222-11.204-15.599-9.412-13.887-11.031-15.55-13.731-14.106-6.173 3.304-5.177 24.482 1.796 38.148 1.113 2.184 1.612 3.97 1.108 3.97-3.326 0-50.124-56.21-50.124-60.205 0-.54 1.303-.668 3.001-.295 4.281.941 4.704-1.179 2.061-10.331-3.959-13.712-4.265-15.703-3.086-20.081 1.391-5.164 1.855-5.106 5.524.68 3.738 5.896 4.377 5.838 7.605-.689 2.104-4.255 2.732-7.32 3.259-15.924 1.349-21.994 3.053-27.545 7.404-24.123 4.144 3.26 6.381.947 8.36-8.643 2.629-12.74 6.114-20.442 12.842-28.389l2.964-3.5 3.783 4.181c2.081 2.299 4.72 4.443 5.864 4.763 4.915 1.378 13.429-8.692 14.957-17.691 1.045-6.153 3.581-8.56 6.798-6.453 3.132 2.053 5.531 2.115 8.047.21 1.633-1.235 2.349-1.231 5.372.032 6.619 2.766 11.245-.187 11.245-7.177 0-3.326.052-3.365 4.545-3.365 6.304 0 9.455-3.151 9.455-9.455 0-5.331.598-5.5 9-2.545 10.924 3.843 16.531 1.83 14.125-5.071-1.22-3.499-.841-3.572 6.508-1.255 6.887 2.17 10.367.928 10.367-3.702 0-7.684-18.586-33.166-41.438-56.814-8.923-9.234-12.551-11.629-16.221-10.708-1.569.394-3.408-.043-5.142-1.222-8.954-6.091-17.853-6.879-19.509-1.728-.53 1.65-1.062 3.122-1.182 3.271-.119.15-2.645-.859-5.613-2.24-10.278-4.785-16.895-2.473-16.895 5.903 0 3.156-.199 3.158-7.808.066-11.058-4.493-15.232-2.611-17.325 7.809-1.313 6.539-1.239 6.505-7.015 3.203-2.394-1.368-5.286-2.493-6.428-2.5-4.015-.023-8.318 7.465-9.905 17.238-.728 4.477-1.665 4.613-6.883 1-10.947-7.581-27.2 1.073-29.163 15.527-1.038 7.648-1.349 8.223-4.451 8.223-5.085 0-9.713 7.917-11.54 19.745-.825 5.339-1.609 5.813-4.511 2.724-4.138-4.405-9.859-1.883-14.819 6.531-3.93 6.669-4.263 42.623-.613 66.192.365 2.355-.798.715-4.036-5.692-9.149-18.1-12.505-26.034-21.545-50.935-4.631-12.754-6.261-15.565-9.03-15.565-2.259 0-5.868 6.691-5.906 10.95-.033 3.633-1.299 1.638-5.367-8.45-14.805-36.721-21.627-64.452-20.433-83.06.56-8.72 1.243-9.853 3.884-6.44 5.66 7.315 5.789 7.405 7.891 5.503 3.117-2.822 3.805-6.98 4.32-26.136.504-18.734.909-20.691 5.247-25.367 1.276-1.375 3.738-5.875 5.473-10 4.157-9.89 5.497-11.298 6.362-6.688 1.563 8.333 8.809 11.683 12.422 5.742.985-1.62 3.075-6.907 4.645-11.75 2.861-8.826 6.752-16.304 8.484-16.304.509 0 2.389 2.038 4.178 4.529 6.69 9.315 12.087 6.879 15.997-7.223 2.291-8.262 1.774-7.96 7.455-4.357 8.548 5.421 10.881 4.43 14.33-6.083 3.471-10.583 3.91-10.742 16.208-5.867 13.444 5.329 17.882 3.852 17.882-5.949 0-3.712 1.801-3.949 8.141-1.072 6.9 3.131 10.299 2.722 12.293-1.479 1.64-3.458 1.697-3.483 4.564-2 3.112 1.609 6.013 1.973 5.984.751-.021-.87-2.838-5.917-12.979-23.25a2184.092 2184.092 0 0 1-13.408-23.286c-12.937-22.896-25.631-37.092-35.438-39.635-7.804-2.023-7.674-2.079-7.49 3.227.091 2.643-.134 4.664-.5 4.492-.367-.172-3.592-1.836-7.167-3.698-8.528-4.442-19.413-8.1-24.103-8.1-5.352 0-7.426 3.022-8.264 12.041-1.118 12.025-2.272 12.846-10.558 7.507-9.639-6.21-14.978-5.209-16.537 3.101l-.653 3.479-3.692-4.11c-2.63-2.926-4.744-4.273-7.345-4.678-5.32-.83-6.839 2.051-8.418 15.963-.699 6.158-1.307 11.398-1.351 11.643-.043.246-1.622-1.049-3.507-2.876C65.511 394.165 59 397.448 59 404.904c0 2.768-1.558 2.646-5.182-.404-3.741-3.148-4.915-3.131-8.79.13-5.629 4.736-8.478 12.284-12.974 34.37-1.283 6.303-2.058 8-3.656 8-1.499 0-4.76-6.353-6.158-12-.477-1.925-1.455-3.5-2.174-3.5-1.305 0-6.39 8.576-7.578 12.78-2.109 7.466-5.913 16.695-6.599 16.009-.444-.444-1.544-3.728-2.445-7.298-.901-3.57-2.044-6.918-2.541-7.441-1.153-1.213-1.218 75.693-.065 77 .461.522 2.104 4.55 3.651 8.95 1.547 4.4 3.385 9.148 4.085 10.552 1.178 2.362.906 3.052-3.651 9.257L0 558.014v14.993C0 583.169.352 588 1.091 588c.6 0 4.977-3.825 9.726-8.5 4.749-4.675 8.881-8.5 9.182-8.5.301 0 1.634 3.262 2.962 7.25 9.741 29.239 18.355 50.329 22.254 54.479 2.355 2.507 5.773 2.92 8.753 1.059 2.522-1.575 1.987-2.596 7.978 15.212 9.379 27.875 20.744 52.878 26.073 57.362 3.757 3.161 5.332 3.287 7.981.638 2.981-2.981 3.258-2.731 7.489 6.75 3.966 8.886 13.765 28.105 17.835 34.976 11.289 19.063 18.57 28.669 23.722 31.298l4.109 2.095 3.342-2.549 3.342-2.549 3.727 6.739C188.929 836.867 280.666 932 302.513 932c4.107 0 8.487-4.685 8.487-9.077 0-4.066.24-3.936 9.898 5.337 36.564 35.109 99.477 70.894 118.398 67.344 5.87-1.101 10.704-5.937 10.704-10.708 0-4.837-.746-4.938 11.351 1.529 5.582 2.983 14.874 7.284 20.649 9.557 5.775 2.273 11.4 4.533 12.5 5.021 2.373 1.055 13.489 4.319 26 7.635 58.371 15.472 99.053 16.701 111.75 3.375 4.655-4.885 4.781-7.667.509-11.236-4.103-3.429-1.927-3.679 6.241-.718 18.158 6.582 71.529 6.497 90.846-.145 16.41-5.642 21.927-11.465 16.723-17.65l-2.493-2.963 11.03-.631c12.314-.704 25.363-2.858 34.394-5.677 34.4-10.736 39.913-12.813 56.341-21.219 25.004-12.794 32.705-21.319 25.64-28.384-3.008-3.008-2.648-3.864 2.283-5.431 23.371-7.427 69.333-39.643 76.596-53.688 2.97-5.744-.046-14.271-5.047-14.271-3.193 0-.725-2.913 6.535-7.715 17.937-11.863 42.546-39.318 40.636-45.335-.426-1.343.451-3.27 2.823-6.2 8.668-10.706 16.839-28.729 23.414-51.641 4.127-14.386 4.123-39.427-.01-52.29-4.693-14.61-15.35-28.516-26.044-33.984-2.92-1.493-3.661-2.362-3.111-3.648 8.807-20.582-20.863-55.545-62.035-73.101-25.266-10.774-52.569-13.779-73.521-8.093-13.036 3.537-12.651 3.524-15.232.524-7.12-8.278-34.337-1.539-59.48 14.729-17.444 11.286-42.336 33.989-53.788 49.059-5.591 7.358-6.17 7.694-7.45 4.326-1.247-3.28-5.79-6.631-8.989-6.631-4.98 0-11.501 5.357-19.676 16.163-16.986 22.452-32.688 36.067-52.885 45.852-32.833 15.908-56.548 18.081-103.5 9.488-10.951-2.005-38.117-10.366-47.124-14.504-2.376-1.091-2.523-1.473-1.558-4.032 1.799-4.763-.14-7.127-9.453-11.523-39.214-18.512-61.274-34.121-102.841-72.766-15.065-14.007-18.072-17.236-16.284-17.493 2.801-.403 7.26-5.663 7.26-8.565 0-7.528-25.699-38.124-59.926-71.345l-7.444-7.225 3.4-2.291c1.942-1.309 4.014-3.908 4.835-6.063 2.466-6.481-5.195-19.086-31.595-51.981-8.395-10.46-10.206-12.161-16.115-15.137-18.758-9.446-33.166-27.095-37.029-45.356-.615-2.903-1.861-6.414-2.77-7.802-1.245-1.899-1.37-2.806-.505-3.671.632-.632 1.149-3.671 1.149-6.753 0-7.017-2.499-11.114-14.025-22.996-15.368-15.842-33.488-36.671-30.056-34.55 1.774 1.096 4.288-2.627 3.618-5.358-.35-1.426-.897-7.429-1.215-13.342-.318-5.913-.869-10.75-1.223-10.75-1.476 0-8.099-14.989-8.1-18.333-.001-2.705-5.324-14.086-8.596-18.381-1.501-1.968-5.636-4.773-10.676-7.241-13.83-6.77-22.354-14.54-30.147-27.482-3.187-5.292-4.207-6.163-10.308-8.792-12.814-5.523-13.816-5.779-16.166-4.133M817 589.732c-20.778 7.267-52.002 30.75-69.376 52.175l-5.347 6.593-.628 9.5c-.345 5.225-.916 11.188-1.269 13.25-.945 5.524.654 4.687 6.689-3.5 19.342-26.242 50.111-47.153 70.48-47.9 3.253-.119 7.48-1.364 12.324-3.627 12.868-6.014 19.898-5.117 15.804 2.016-2.344 4.085-1.614 4.417 4.307 1.957 2.766-1.15 9.544-3.109 15.06-4.353 11.569-2.609 14.69-1.808 16.239 4.17.566 2.182 1.27 2.989 2.273 2.604 20.66-7.928 49.483-.92 77.248 18.781 8.098 5.746 13.196 8.057 13.196 5.983 0-1.789-7.937-13.279-12.803-18.535-13.286-14.35-39.561-30.001-59.697-35.557-19.739-5.447-45.684-3.875-69.346 4.203-12.336 4.212-16.206 2.728-11.318-4.338 4.087-5.908 3.858-6.113-3.836-3.422M264.266 862.921c-.678 1.1-.985 2.647-.682 3.438.886 2.309-1.376 2.898-2.569.669-.597-1.115-1.75-2.028-2.562-2.028-.812 0 1.866 3.375 5.951 7.5 4.085 4.125 7.76 7.5 8.167 7.5.606 0-1.451-2.88-3.571-5-.275-.275-.58-.95-.678-1.5-.375-2.105-2.198-5.94-2.259-4.75-.034.688-.529 1.25-1.098 1.25-.694 0-.673-.676.061-2.049.604-1.128.957-3.17.786-4.54-.301-2.406-.354-2.422-1.546-.49" fill-rule="evenodd"/><path fill="#3c160c" stroke="#3c160c" d="M88.561 186.807c-1.02 3.216 1.086 6.871 6.269 10.882 13.873 10.734 16.724 12.791 17.416 12.561.415-.137.641.133.504.601-.138.468 3.224 4.406 7.471 8.75 4.246 4.345 9.232 10.039 11.078 12.654 1.847 2.615 3.732 4.415 4.19 4 .457-.415.549-.26.205.346-.797 1.398 3.72 7.625 4.813 6.636.448-.406.509-.205.137.444-.372.65.49 2.9 1.917 5 1.427 2.101 4.637 8.094 7.133 13.319 2.497 5.225 4.973 10.341 5.505 11.368 1.886 3.648-.782 3.455-6.699-.485-10.455-6.962-17.503-8.737-20.963-5.278-2.704 2.705-.503 7.504 8.696 18.955 3.508 4.367 9.786 12.44 13.952 17.94 4.166 5.5 8.416 10.996 9.445 12.213 1.028 1.217 4.12 4.973 6.87 8.345 2.75 3.373 7.813 9.323 11.25 13.221 7.12 8.075 7.365 8.721 3.309 8.721-4.498 0-4.569 1.607-.3 6.773 2.148 2.6 6.308 7.877 9.244 11.727 5.697 7.47 13.476 16.999 23.997 29.395 3.575 4.212 7.85 9.412 9.5 11.555 1.65 2.143 4.8 5.962 7 8.487 2.2 2.525 9.619 11.335 16.486 19.577 6.868 8.242 15.531 18.527 19.25 22.856 10.012 11.65 9.317 12.797-4.274 7.055-18.018-7.613-18.753-7.674-14.377-1.193 14.221 21.061 33.65 43.929 60.658 71.393 19.504 19.833 23.488 24.228 21.007 23.174-3.87-1.643-16.959-8.567-18.003-9.522-.735-.673-3.229-1.776-5.542-2.452-2.313-.675-4.494-1.648-4.848-2.162-1.01-1.467-5.857.181-5.857 1.992 0 1.231 15.243 19.761 25.475 30.968 21.498 23.548 48.656 49.18 74.525 70.337 24.347 19.912 33.651 25.842 43.294 27.591 4.858.881 4.262 2.919-.889 3.042-2.148.052-4.285.164-4.75.25-.464.087 1.111 1.703 3.5 3.593 2.39 1.89 5.936 4.78 7.88 6.422 7.362 6.218 23.361 14.76 40.465 21.606 3.85 1.541 8.35 3.362 10 4.046 1.65.685 7.05 2.462 12 3.95 4.95 1.487 11.146 3.354 13.769 4.149 5.424 1.642 21.767 5.239 29.231 6.433 17.626 2.819 48.863 1.964 61-1.67 37.054-11.096 51.198-19.851 81.672-50.558C702.441 665.466 711.103 657 711.422 657c.318 0 .579 1.688.58 3.75.001 4.099 2.735 10.391 4.797 11.04 1.346.424 23.621-21.367 26.375-25.802 2.635-4.242 20.581-22.612 28.671-29.347 14.51-12.08 28.415-20.667 43.472-26.844 10.337-4.241 11.621-3.741 7.183 2.798-5.211 7.678-3.266 8.397 10.473 3.87 42.808-14.107 81.059-7.151 117.061 21.285 15.781 12.464 28.778 31.25 21.621 31.25-3.266 0-5.655 3.017-5.655 7.14 0 4.133 2.139 6.704 8.749 10.512 10.948 6.308 14.883 11.031 19.892 23.874 5.343 13.698 3.167 41.616-4.594 58.937-.995 2.22-2.117 5.047-2.494 6.282-1.092 3.581-12.171 23.014-18.147 31.832-11.942 17.621-28.928 34.553-46.04 45.892-21.071 13.963-21.927 21.411-2.333 20.293 4.932-.281 8.967-.189 8.967.205s-2.864 3.467-6.365 6.828c-15.855 15.225-61.114 39.685-91.135 49.253-13.814 4.402-20.546 9.79-16.646 13.32.992.898 2.443 1.685 3.225 1.75.781.065.071.5-1.579.966-2.727.77 22.176.493 25.472-.283 2.938-.692 1.672 1.838-1.758 3.513-38.505 18.81-72.613 26.673-115.741 26.683-17.195.003-19.473.749-19.473 6.373 0 5.287 10.051 12.236 20.548 14.205 18.055 3.387-31.388 5.912-59.048 3.016-15.992-1.675-41.226-5.93-45-7.588-6.854-3.011-23.019-4.685-25.684-2.659-6.444 4.899.615 16.017 15.684 24.699l6 3.457-3.484.331c-19.762 1.876-71.795-9.805-85.516-19.199-2.475-1.694-2.749-1.742-1.567-.27.788.981 3.12 2.645 5.182 3.697 3.83 1.953 5.506 3.653 4.549 4.61-.977.978-31.601-8.586-48.665-15.197-19.533-7.569-34.745-15.279-49.999-25.345-20.576-13.577-22.823-14.324-25.115-8.349-2.224 5.798 1.129 14.592 9.353 24.53 2.189 2.645 3.685 5.102 3.326 5.461-2.098 2.099-41.032-20.85-58.064-34.224-3.85-3.023-10.375-8.07-14.5-11.215-19.62-14.959-35.245-30.003-48.917-47.099-10.605-13.261-14.936-15.821-18.348-10.846-.996 1.452-8.093-6.309-11.119-12.161-2.191-4.236-4.425-5.884-5.209-3.842-.339.883-.991 1.375-1.448 1.093-1.244-.769-2.293 7.998-1.675 13.992.53 5.135 4.493 14.453 7.371 17.331 1.766 1.766 1.075 2.71-1.096 1.495-1.963-1.099-23.137-21.908-34.418-33.825-10.833-11.444-21.847-24.644-30.901-37.034a12984.23 12984.23 0 0 0-16.074-21.934c-17.068-23.234-27.452-40.456-36.64-60.771-5.708-12.62-6.422-13.429-10.395-11.783-3.753 1.554-5.131 4.805-5.131 12.101 0 3.302-.445 5.953-1 5.953-.55 0-1-.516-1-1.146 0-.631-1.497-3.444-3.326-6.25-7.109-10.91-22.406-45.46-28.601-64.604-5.543-17.124-11.242-19.551-12.83-5.463-.941 8.35-1.505 7.632-9.048-11.537C77.404 628.743 69 603.656 69 600.641c0-1.374-.704-3.202-1.564-4.062-.86-.86-1.24-2.087-.845-2.726.417-.674.284-.894-.316-.523-1.2.742-8.927-20.917-13.723-38.461-2.265-8.287-4.434-10.648-7.772-8.461-2.972 1.948-6.78 10.073-6.78 14.468 0 8.91-4.448-2.507-13.979-35.876A1359.89 1359.89 0 0 0 19 508c-4.778-15.774-9.178-31.125-10.891-38-.891-3.575-1.887-6.95-2.214-7.5-.327-.55-1.674-4.356-2.995-8.459l-2.4-7.458-.263 36.892c-.144 20.29.094 37.147.529 37.458.436.312 2.09 4.392 3.677 9.067 1.587 4.675 3.487 9.388 4.221 10.473.735 1.084 1.336 2.731 1.336 3.66 0 1.62-7.52 12.013-9.19 12.7C-.465 557.358-.203 587 1.077 587c.592 0 2.427-1.35 4.077-3s3.205-3 3.457-3c.75 0 6.263-5.879 8.003-8.533 2.88-4.396 4.058-2.958 8.428 10.283 2.313 7.013 4.999 14.775 5.968 17.25.968 2.475 3.4 8.775 5.403 14 6.834 17.827 10.802 22.492 16.586 19.501 3.842-1.987 4.051-1.781 6.506 6.427 7.339 24.538 22.083 59.131 27.842 65.322 3.044 3.273 7.096 3.615 8.885.75 1.541-2.467 3.632-2.585 4.426-.25 2.918 8.574 17.749 37.755 24.778 48.75 1.758 2.75 4.472 7.025 6.031 9.5 7.699 12.224 14.735 18.14 19.172 16.119 1.298-.592 2.361-1.488 2.361-1.991 0-.503.661-1.168 1.468-1.477 1.053-.404 3.086 2.323 7.185 9.643C189.965 836.84 282.072 932 302.686 932c2.516 0 7.254-3.974 7.397-6.205.516-8.018 1.113-8.107 7.698-1.148 5.779 6.108 24.931 22.413 33.219 28.282 9.586 6.788 26.945 17.993 34.054 21.981 4.095 2.298 8.121 4.601 8.946 5.118 9.572 6.005 34.303 15.086 41.545 15.255 9.127.214 17.544-7.856 13.401-12.848-2.826-3.405.759-2.306 14.266 4.374 26.86 13.284 44.769 19.12 85.07 27.719 29.484 6.291 51.921 7.72 68.035 4.333 16.035-3.372 23.257-12.135 15.117-18.343-5.156-3.933-3.996-4.012 9.415-.637 29.616 7.454 74.641 6.103 95.651-2.87 10.239-4.372 14.545-11.786 8.968-15.44-3.838-2.514-2.102-3.571 5.867-3.571 7.513 0 23.062-1.612 25.665-2.66.825-.333 2.4-.728 3.5-.879 18.889-2.59 63.874-20.492 81.4-32.393 11.828-8.032 15.05-17.563 6.868-20.316-1.708-.575.839-3.752 3.008-3.752 2.973 0 26.931-11.861 35.724-17.686 39.997-26.496 52.921-43.091 38.523-49.464-3.897-1.725-3.828-3.384.227-5.475 16.231-8.372 46.782-40.465 45.348-47.636-.473-2.365.139-3.764 3.313-7.57 13.611-16.322 27.089-54.922 27.089-77.582 0-25.423-12.346-50.534-29.058-59.102-4.574-2.344-4.956-3.149-3.186-6.698 5.611-11.247-8.864-35.472-31.157-52.147-36.085-26.99-79.467-35.895-114.224-23.448-2.913 1.043-3.332.888-6.169-2.286-3.013-3.371-3.13-3.405-11.375-3.346-25.437.183-67.164 27.065-96.921 62.441-9.887 11.753-11.423 12.694-13.06 8-1.253-3.595-7.263-6.988-9.108-5.143-.628.628-1.936 1.142-2.907 1.142-2.759 0-8.157 5.32-16.93 16.683-25.874 33.517-53.426 50.605-92.405 57.311-6.727 1.157-31.431 1.165-39.5.012-21.842-3.12-51.774-10.552-62.651-15.556-1.733-.798-3.435-1.45-3.782-1.45-2.99 0-7.689-3.148-6.621-4.435.655-.789 1.047-2.926.872-4.75-.31-3.227-.798-3.556-18.318-12.352-36.521-18.336-57.632-34.192-105.716-79.401-6.668-6.269-6.846-6.796-2.763-8.219 13.282-4.63 2.526-20.751-47.777-71.604-14.952-15.115-15.036-15.254-10.351-17.195 3.415-1.414 5.595-5.86 4.804-9.8-.63-3.137-7.971-16.547-11.697-21.367C275.428 438.44 264.535 425 263.733 425c-.54 0-3.739-1.23-7.108-2.733-25.96-11.581-40.854-33.88-42.551-63.706-.914-16.071-1.393-17.053-11.698-23.999-5.785-3.899-18.085-17.349-21.601-23.62-1.987-3.543-4.999-7.764-6.694-9.379-3.398-3.24-3.857-4.563-1.581-4.563 1.753 0 1.81-.941.426-6.949-.564-2.446-1.217-7.924-1.452-12.172-.314-5.68-1.058-8.87-2.812-12.052-3.149-5.715-7.45-19.147-8.004-24.996-.539-5.692-3.156-9.502-7.154-10.414-12.605-2.877-29.476-16.217-38.71-30.608-3.575-5.571-5.048-6.975-8.794-8.381-2.475-.929-5.85-2.482-7.5-3.451-5.02-2.948-9.218-3.442-9.939-1.17m42.252 171.876c.721.289 1.584.253 1.916-.079.332-.332-.258-.568-1.312-.525-1.165.048-1.402.285-.604.604m129 208c.721.289 1.584.253 1.916-.079.332-.332-.258-.568-1.312-.525-1.165.048-1.402.285-.604.604m97.266 67.9c.048 1.165.285 1.402.604.605.289-.722.253-1.585-.079-1.917-.332-.332-.568.258-.525 1.312M130.286 668.5c.008 2.75.202 3.756.432 2.236.229-1.52.223-3.77-.014-5-.237-1.23-.425.014-.418 2.764m589.793 42.083c.048 1.165.285 1.402.604.605.289-.722.253-1.585-.079-1.917-.332-.332-.568.258-.525 1.312m-26.329.123c1.237.238 3.263.238 4.5 0 1.237-.239.225-.434-2.25-.434s-3.487.195-2.25.434m-347.937 27.977c.721.289 1.584.253 1.916-.079.332-.332-.258-.568-1.312-.525-1.165.048-1.402.285-.604.604m5 0c.721.289 1.584.253 1.916-.079.332-.332-.258-.568-1.312-.525-1.165.048-1.402.285-.604.604m254.456 2.01c.973.254 2.323.237 3-.037.677-.274-.119-.481-1.769-.461-1.65.02-2.204.244-1.231.498m11.544-.01c.721.289 1.584.253 1.916-.079.332-.332-.258-.568-1.312-.525-1.165.048-1.402.285-.604.604m9.437 3.006c.962.252 2.538.252 3.5 0 .962-.251.175-.457-1.75-.457s-2.712.206-1.75.457m-65.488 6.018c1.244.239 3.044.23 4-.02s-.062-.446-2.262-.435c-2.2.011-2.982.216-1.738.455m17.507-.014c.973.254 2.323.237 3-.037.677-.274-.119-.481-1.769-.461-1.65.02-2.204.244-1.231.498M215.158 758c0 1.375.227 1.938.504 1.25.278-.687.278-1.812 0-2.5-.277-.687-.504-.125-.504 1.25m93 25c0 1.375.227 1.938.504 1.25.278-.687.278-1.812 0-2.5-.277-.687-.504-.125-.504 1.25m-106.079 3.583c.048 1.165.285 1.402.604.605.289-.722.253-1.585-.079-1.917-.332-.332-.568.258-.525 1.312m533.671 2.079c.688.278 1.813.278 2.5 0 .688-.277.125-.504-1.25-.504s-1.937.227-1.25.504m11.063 23.021c.721.289 1.584.253 1.916-.079.332-.332-.258-.568-1.312-.525-1.165.048-1.402.285-.604.604m-4 1c.721.289 1.584.253 1.916-.079.332-.332-.258-.568-1.312-.525-1.165.048-1.402.285-.604.604m-102.734 7.9c.048 1.165.285 1.402.604.605.289-.722.253-1.585-.079-1.917-.332-.332-.568.258-.525 1.312m-126 3c.048 1.165.285 1.402.604.605.289-.722.253-1.585-.079-1.917-.332-.332-.568.258-.525 1.312m112.734 15.1c.721.289 1.584.253 1.916-.079.332-.332-.258-.568-1.312-.525-1.165.048-1.402.285-.604.604M282.195 841.5c.02 1.65.244 2.204.498 1.231.254-.973.237-2.323-.037-3-.274-.677-.481.119-.461 1.769m455.963 4.5c0 1.375.227 1.938.504 1.25.278-.687.278-1.812 0-2.5-.277-.687-.504-.125-.504 1.25m-454.079 2.583c.048 1.165.285 1.402.604.605.289-.722.253-1.585-.079-1.917-.332-.332-.568.258-.525 1.312m458.654 3.541c.679.684 1.486.991 1.793.683.308-.308-.247-.867-1.233-1.243-1.425-.542-1.54-.428-.56.56M285.252 857.5c.011 2.2.216 2.982.455 1.738.239-1.244.23-3.044-.02-4s-.446.062-.435 2.262m477.887 13.533c-1.298 1.082-1.93 1.967-1.405 1.967.526 0 1.771-.9 2.766-2 2.287-2.527 1.695-2.513-1.361.033m-5.326 2.65c.721.289 1.584.253 1.916-.079.332-.332-.258-.568-1.312-.525-1.165.048-1.402.285-.604.604m-377.734 10.9c.048 1.165.285 1.402.604.605.289-.722.253-1.585-.079-1.917-.332-.332-.568.258-.525 1.312M376.32 896c0 3.575.182 5.038.403 3.25.222-1.788.222-4.712 0-6.5-.221-1.788-.403-.325-.403 3.25m106.912 1c0 1.925.206 2.712.457 1.75.252-.962.252-2.538 0-3.5-.251-.962-.457-.175-.457 1.75M367 901.378c0 .207.788.995 1.75 1.75 1.586 1.243 1.621 1.208.378-.378-1.307-1.666-2.128-2.195-2.128-1.372m117.071.122c0 .55.643 2.125 1.429 3.5s1.429 2.05 1.429 1.5c0-.55-.643-2.125-1.429-3.5s-1.429-2.05-1.429-1.5M487 909c0 .55.477 1 1.059 1s.781-.45.441-1-.816-1-1.059-1-.441.45-.441 1m132.733 5.124c.679.684 1.486.991 1.793.683.308-.308-.247-.867-1.233-1.243-1.425-.542-1.54-.428-.56.56m174.517 10.565c.962.252 2.538.252 3.5 0 .962-.251.175-.457-1.75-.457s-2.712.206-1.75.457m9.512 1.018c1.244.239 3.044.23 4-.02s-.062-.446-2.262-.435c-2.2.011-2.982.216-1.738.455m-320.869 6.206c.88.557 1.168 1.746.781 3.225-.424 1.62.191 3.503 1.993 6.103 3.511 5.066 4.113 4.765 1.021-.511l-2.503-4.27 2.336-1.102c1.71-.807 2.662-.801 3.554.02.932.858 1.074.709.604-.628-.484-1.374-.032-1.775 2.102-1.868l2.719-.119-3-.763c-4.38-1.114-11.329-1.177-9.607-.087M486.5 938c.34.55.816 1 1.059 1s.441-.45.441-1-.477-1-1.059-1-.781.45-.441 1m2.104 1.59c-.631 1.643-.006 3.41 1.205 3.41.38 0 .691-1.125.691-2.5 0-2.825-.981-3.296-1.896-.91m3.96 4.117c-.542 1.425-.428 1.54.56.56.684-.679.991-1.486.683-1.793-.308-.308-.867.247-1.243 1.233m-.406 6.293c1.22 1.65 2.668 3 3.217 3 .55 0-.294-1.35-1.875-3s-3.028-3-3.217-3c-.189 0 .655 1.35 1.875 3m4.842 5.288c0 1.599 8.903 7.408 9.393 6.13.349-.909.164-1.262-.458-.878-.573.354-2.372-.747-3.997-2.448-2.462-2.576-4.938-3.982-4.938-2.804m13 11.105c0 .216.698.661 1.552.989.89.341 1.291.173.941-.393-.587-.951-2.493-1.406-2.493-.596M523 976c.825.533 1.95.969 2.5.969s.325-.436-.5-.969c-.825-.533-1.95-.969-2.5-.969s-.325.436.5.969" fill-rule="evenodd"/></svg>